<svg xmlns="http://www.w3.org/2000/svg" width="119" height="36" viewBox="0 0 119 36" role="img" aria-label="Discord">
  <rect x="0.75" y="0.75" width="117.5" height="34.5" rx="8" fill="#111111" stroke="#111111" stroke-width="1.2"/>
  <g transform="translate(14,9.5)" fill="none" stroke="#faf9f6" stroke-width="2" stroke-linecap="round" stroke-linejoin="round">
    <path d="M8.5 8.2a12 12 0 017 0c1.9.9 3 2.6 3.4 5.1.3 1.9.2 3.4.2 3.4a10 10 0 01-3 1.5l-.7-1.2a7 7 0 002-1M8.5 8.2a10 10 0 00-3 1.4M8.5 8.2 8 7m8 1.2.5-1.2M8.4 15.4a9 9 0 006.9.1M6.5 13.6c.7.9 1.9.9 2.6 0M14.9 13.6c.7.9 1.9.9 2.6 0" transform="scale(0.7083333333333334)"/>
  </g>
  <text x="39" y="18.0" fill="#faf9f6" font-family="'JetBrains Mono','DejaVu Sans Mono','SFMono-Regular',Consolas,monospace" font-size="14" font-weight="600" letter-spacing="0.6" dominant-baseline="central">Discord</text>
</svg>
