<svg xmlns="http://www.w3.org/2000/svg" width="110" height="36" viewBox="0 0 110 36" role="img" aria-label="GitHub">
  <rect x="0.75" y="0.75" width="108.5" height="34.5" rx="8" fill="#111111" stroke="#111111" stroke-width="1.2"/>
  <g transform="translate(14,9.5)" fill="none" stroke="#faf9f6" stroke-width="2" stroke-linecap="round" stroke-linejoin="round">
    <path d="M12 3.6a8.4 8.4 0 00-2.7 16.4c.4.1.6-.2.6-.4v-1.5c-2.3.5-2.8-1.1-2.8-1.1-.4-1-.9-1.2-.9-1.2-.8-.5.1-.5.1-.5.8.1 1.3.9 1.3.9.7 1.3 2 .9 2.5.7.1-.5.3-.9.5-1.1-1.9-.2-3.8-.9-3.8-4.1 0-.9.3-1.6.9-2.2-.1-.2-.4-1.1.1-2.2 0 0 .7-.2 2.3.8a7.9 7.9 0 014.2 0c1.6-1 2.3-.8 2.3-.8.5 1.1.2 2 .1 2.2.5.6.9 1.3.9 2.2 0 3.2-1.9 3.9-3.8 4.1.3.3.6.8.6 1.6v2.4c0 .2.2.5.6.4A8.4 8.4 0 0012 3.6z" transform="scale(0.7083333333333334)"/>
  </g>
  <text x="39" y="18.0" fill="#faf9f6" font-family="'JetBrains Mono','DejaVu Sans Mono','SFMono-Regular',Consolas,monospace" font-size="14" font-weight="600" letter-spacing="0.6" dominant-baseline="central">GitHub</text>
</svg>
