<svg xmlns="http://www.w3.org/2000/svg" width="145" height="44" viewBox="0 0 145 44" role="img" aria-label="GitHub">
  <rect x="1" y="1" width="143" height="42" rx="10" fill="#111111" stroke="#111111" stroke-width="1.4"/>
  <g transform="translate(22,10.0)" fill="none" stroke="#faf9f6" stroke-width="1.6" stroke-linecap="round" stroke-linejoin="round">
    <path d="M12 3.6a8.4 8.4 0 00-2.7 16.4c.4.1.6-.2.6-.4v-1.5c-2.3.5-2.8-1.1-2.8-1.1-.4-1-.9-1.2-.9-1.2-.8-.5.1-.5.1-.5.8.1 1.3.9 1.3.9.7 1.3 2 .9 2.5.7.1-.5.3-.9.5-1.1-1.9-.2-3.8-.9-3.8-4.1 0-.9.3-1.6.9-2.2-.1-.2-.4-1.1.1-2.2 0 0 .7-.2 2.3.8a7.9 7.9 0 014.2 0c1.6-1 2.3-.8 2.3-.8.5 1.1.2 2 .1 2.2.5.6.9 1.3.9 2.2 0 3.2-1.9 3.9-3.8 4.1.3.3.6.8.6 1.6v2.4c0 .2.2.5.6.4A8.4 8.4 0 0012 3.6z"/>
  </g>
  <text x="58" y="22.0" fill="#faf9f6" font-family="'JetBrains Mono','SFMono-Regular',Consolas,monospace" font-size="15" font-weight="600" letter-spacing="1.2" dominant-baseline="central">GitHub</text>
</svg>
