<svg xmlns="http://www.w3.org/2000/svg" width="156" height="44" viewBox="0 0 156 44" role="img" aria-label="Discord">
  <rect x="1" y="1" width="154" height="42" rx="10" fill="#f5f5f5" stroke="#f5f5f5" stroke-width="1.4"/>
  <g transform="translate(22,10.0)" fill="none" stroke="#0d0d0d" stroke-width="1.6" stroke-linecap="round" stroke-linejoin="round">
    <path d="M8.5 8.2a12 12 0 017 0c1.9.9 3 2.6 3.4 5.1.3 1.9.2 3.4.2 3.4a10 10 0 01-3 1.5l-.7-1.2a7 7 0 002-1M8.5 8.2a10 10 0 00-3 1.4M8.5 8.2 8 7m8 1.2.5-1.2M8.4 15.4a9 9 0 006.9.1M6.5 13.6c.7.9 1.9.9 2.6 0M14.9 13.6c.7.9 1.9.9 2.6 0"/>
  </g>
  <text x="58" y="22.0" fill="#0d0d0d" font-family="'JetBrains Mono','SFMono-Regular',Consolas,monospace" font-size="15" font-weight="600" letter-spacing="1.2" dominant-baseline="central">Discord</text>
</svg>
